# xmcd
#
# Track frame offsets:
# 150
# 17712
# 38124
# 54784
#
# Disc length: 998 seconds
#
#
# Revision: 0
# Processed by: cddbd v1.5.2PL0 Copyright (c) Steve Scherf et al.
# Submitted via: FreeRIP 2.943 
#
DISCID=2403e404
DTITLE=blowback - morningwood
DYEAR=2007
DGENRE=Jungle
TTITLE0=phase i and ii
TTITLE1=lazy
TTITLE2=mushroom man
TTITLE3=under the sun
EXTD=
EXTT0=
EXTT1=
EXTT2=
EXTT3=
PLAYORDER=
